Coordinates
version=1
nRows=21
nColumns=22
inDegrees=yes

Units are S.I. units (second, meters, Newtons, ...)
If the header above contains a line with 'inDegrees', this indicates whether rotational values are in degrees (yes) or radians (no).

endheader
time	pelvis_tilt	pelvis_list	pelvis_rotation	pelvis_tx	pelvis_ty	pelvis_tz	hip_flexion_r	hip_adduction_r	hip_rotation_r	knee_angle_r	ankle_angle_r	subtalar_angle_r	hip_flexion_l	hip_adduction_l	hip_rotation_l	knee_angle_l	ankle_angle_l	subtalar_angle_l	lumbar_extension	lumbar_bending	lumbar_rotation
      3.62000000	      0.46064437	      0.09712890	    158.53834716	      0.31181611	      1.03718116	     -0.83509563	     -9.19000356	     -5.19299464	    -11.44861364	    -26.53646963	     14.62739765	     14.51230415	     24.56039055	      0.80026950	    -28.68489241	    -15.60657065	      2.23500021	     -9.09547574	     -4.89683672	     -4.79349689	      4.27101564
      3.63000000	      0.34384912	     -0.22179116	    158.98630340	      0.29966692	      1.03844661	     -0.83522922	     -8.82316699	     -5.76665514	    -10.50034814	    -28.31332632	     12.75271228	     15.88340490	     24.18442867	      1.49169315	    -28.00480637	    -15.99102616	      1.77642919	     -9.79365341	     -4.72432839	     -5.15718760	      4.27206568
      3.64000000	      0.28370688	     -0.47477062	    159.48831156	      0.28758454	      1.03994206	     -0.83513954	     -8.30618257	     -6.21438064	     -9.41688145	    -30.21452105	     10.61350596	     17.32074128	     23.80853208	      2.15649503	    -27.14146799	    -16.31615016	      1.50162515	    -10.45724169	     -4.54888525	     -5.42416624	      4.25164988
      3.65000000	      0.27698978	     -0.66798827	    160.02116690	      0.27560721	      1.04156597	     -0.83488436	     -7.62940946	     -6.54151965	     -8.19892488	    -32.23597600	      8.29495734	     18.77315468	     23.43480572	      2.77527000	    -26.19802858	    -16.59607920	      1.40487868	    -11.07037555	     -4.36660476	     -5.60578284	      4.22492380
      3.66000000	      0.31435430	     -0.80058272	    160.56754756	      0.26379623	      1.04323106	     -0.83452087	     -6.79636766	     -6.74646123	     -6.86046020	    -34.36493520	      5.91352161	     20.19891165	     23.05686469	      3.33255438	    -25.23148104	    -16.83451273	      1.44461749	    -11.63068541	     -4.18802239	     -5.71074202	      4.20026130
      3.67000000	      0.37818765	     -0.88783120	    161.11890184	      0.25218242	      1.04485459	     -0.83409262	     -5.82353799	     -6.84552393	     -5.42549790	    -36.58480855	      3.62367012	     21.58439462	     22.66249286	      3.83803571	    -24.29712454	    -17.02462336	      1.58521152	    -12.15671983	     -4.02403208	     -5.76820779	      4.17479608
      3.68000000	      0.44313929	     -0.95159634	    161.66902752	      0.24077787	      1.04637318	     -0.83360196	     -4.73278991	     -6.87666501	     -3.95020193	    -38.88411932	      1.60519853	     22.87567139	     22.22500251	      4.31968715	    -23.42580108	    -17.14246820	      1.79427412	    -12.65327693	     -3.89408587	     -5.80877260	      4.14503123
      3.69000000	      0.49308146	     -1.02164041	    162.21983064	      0.22954472	      1.04773574	     -0.83304115	     -3.55519509	     -6.87910077	     -2.47299590	    -41.22129113	      0.02342039	     24.01960127	     21.73574604	      4.81065556	    -22.63613843	    -17.18573487	      2.04122706	    -13.12704758	     -3.79672620	     -5.86545593	      4.09145477
      3.70000000	      0.50218486	     -1.10559403	    162.78800928	      0.21847520	      1.04894052	     -0.83237993	     -2.33189036	     -6.88087668	     -1.06119066	    -43.56927304	     -1.01867648	     24.92176376	     21.16850417	      5.33274596	    -21.90700543	    -17.14867014	      2.32391271	    -13.57645278	     -3.76028487	     -5.95380167	      4.00375829
      3.71000000	      0.46580313	     -1.22222258	    163.37907893	      0.20751356	      1.04999523	     -0.83158271	     -1.08660360	     -6.91697730	      0.25047641	    -45.87963946	     -1.51287755	     25.48435503	     20.51390090	      5.90879711	    -21.24555274	    -17.01594148	      2.60860274	    -13.98811464	     -3.77469916	     -6.08339373	      3.83961070
      3.72000000	      0.38447917	     -1.37635222	    164.01028834	      0.19664139	      1.05091384	     -0.83058804	      0.16553508	     -7.01506079	      1.41150434	    -48.11308808	     -1.55535566	     25.71248397	     19.78249002	      6.54803316	    -20.61530331	    -16.80931545	      2.89654751	    -14.38094113	     -3.83671489	     -6.25148845	      3.59819004
      3.73000000	      0.24165970	     -1.58201574	    164.70486752	      0.18579938	      1.05174796	     -0.82934739	      1.38362327	     -7.21800404	      2.37684968	    -50.22439058	     -1.21256698	     25.61845139	     18.95293203	      7.27820462	    -19.96897527	    -16.52565181	      3.21989560	    -14.65969764	     -3.95496385	     -6.47282745	      3.24380004
      3.74000000	      0.10932129	     -1.81594778	    165.44381364	      0.17507586	      1.05246308	     -0.82785282	      2.64020446	     -7.48432554	      3.19451406	    -52.19374121	     -0.65248239	     25.20849281	     18.11006406	      8.04815593	    -19.26420958	    -16.19256599	      3.46480422	    -15.06399759	     -4.05867128	     -6.69742792	      2.86139539
      3.75000000	     -0.05514782	     -2.06674976	    166.26393670	      0.16439816	      1.05316744	     -0.82605931	      3.85089041	     -7.82889127	      3.82823557	    -53.97326163	      0.03690371	     24.54190432	     17.20108348	      8.86331819	    -18.47367867	    -15.81953123	      3.71837979	    -15.37841817	     -4.19456790	     -6.92043731	      2.37380980
      3.76000000	     -0.21670642	     -2.31516239	    167.15504487	      0.15381403	      1.05386122	     -0.82398647	      5.04206106	     -8.21527485	      4.32713039	    -55.54974997	      0.75817706	     23.67362408	     16.26712838	      9.68368375	    -17.58748634	    -15.42815934	      3.95496413	    -15.63804651	     -4.32867225	     -7.11265103	      1.82651520
      3.77000000	     -0.35981203	     -2.54445837	    168.10665176	      0.14336778	      1.05454652	     -0.82166989	      6.22316156	     -8.61054595	      4.73529472	    -56.91911701	      1.46908772	     22.63886318	     15.33460969	     10.47476929	    -16.62736808	    -15.04746297	      4.19112386	    -15.85556463	     -4.44751822	     -7.25717238	      1.24351180
      3.78000000	     -0.46705352	     -2.74250863	    169.10200156	      0.13311987	      1.05522509	     -0.81916309	      7.41290137	     -8.97652266	      5.11089166	    -58.08340548	      2.11570828	     21.49757128	     14.42156863	     11.21454695	    -15.57434566	    -14.67510275	      4.39006227	    -16.02718424	     -4.53645557	     -7.34612417	      0.67660289
      3.79000000	     -0.53181587	     -2.89325261	    170.12729479	      0.12310536	      1.05588968	     -0.81652572	      8.61463272	     -9.27432349	      5.49526610	    -59.04355976	      2.68839322	     20.28893798	     13.54275935	     11.87609296	    -14.45133227	    -14.32569690	      4.55670840	    -16.15963698	     -4.59165498	     -7.37025565	      0.14883482
      3.80000000	     -0.56444274	     -2.99764848	    171.16239100	      0.11331544	      1.05652359	     -0.81382558	      9.81694420	     -9.48963885	      5.92184204	    -59.80495621	      3.23267027	     18.99577740	     12.70336124	     12.44948251	    -13.33430402	    -14.02331001	      4.77115845	    -16.27438344	     -4.62156883	     -7.34079531	     -0.33048854
      3.81000000	     -0.55428568	     -3.03712460	    172.21503601	      0.10376093	      1.05713241	     -0.81108529	     11.02407537	     -9.58345935	      6.40184526	    -60.36727094	      3.70604872	     17.75934720	     11.90660700	     12.92141440	    -12.16364722	    -13.75251317	      4.94830039	    -16.35896127	     -4.61991539	     -7.24381071	     -0.74467731
      3.82000000	     -0.51871804	     -3.02859497	    173.27351379	      0.09440580	      1.05769627	     -0.80834688	     12.22039761	     -9.57043658	      6.94409673	    -60.74201790	      4.16701018	     16.58471665	     11.14735988	     13.30602005	    -11.00187205	    -13.52730146	      5.15581631	    -16.43260606	     -4.60093989	     -7.10599333	     -1.10185968
